<svg width="20" height="23" viewBox="0 0 20 23" fill="none" xmlns="http://www.w3.org/2000/svg">
<g id="Group">
<path id="Vector" d="M12.25 21.625H3.25C2.00687 21.625 1 20.6181 1 19.375V8.125C1 6.88187 2.00687 5.875 3.25 5.875H12.25C13.4931 5.875 14.5 6.88187 14.5 8.125V19.375C14.5 20.6181 13.4931 21.625 12.25 21.625Z" stroke="white" stroke-width="2" stroke-linecap="round" stroke-linejoin="round"/>
<path id="Vector_2" d="M14.5 17.125H16.75C17.9931 17.125 19 16.1181 19 14.875V3.625C19 2.38187 17.9931 1.375 16.75 1.375H7.75C6.50687 1.375 5.5 2.38187 5.5 3.625V5.875" stroke="white" stroke-width="2" stroke-linecap="round" stroke-linejoin="round"/>
<path id="Vector_3" d="M5.5 11.5H10" stroke="white" stroke-width="2" stroke-linecap="round" stroke-linejoin="round"/>
<path id="Vector_4" d="M5.5 16H10" stroke="white" stroke-width="2" stroke-linecap="round" stroke-linejoin="round"/>
</g>
</svg>
