<svg width="24" height="25" viewBox="0 0 24 25" fill="none" xmlns="http://www.w3.org/2000/svg">
<g id="message-chat-square">
<path id="Icon" d="M10 15.5L6.92474 18.6137C6.49579 19.048 6.28131 19.2652 6.09695 19.2805C5.93701 19.2938 5.78042 19.2295 5.67596 19.1076C5.55556 18.9672 5.55556 18.662 5.55556 18.0515V16.4916C5.55556 15.944 5.10707 15.5477 4.5652 15.4683V15.4683C3.25374 15.2762 2.22378 14.2463 2.03168 12.9348C2 12.7186 2 12.4605 2 11.9444V7.3C2 5.61984 2 4.77976 2.32698 4.13803C2.6146 3.57354 3.07354 3.1146 3.63803 2.82698C4.27976 2.5 5.11984 2.5 6.8 2.5H14.2C15.8802 2.5 16.7202 2.5 17.362 2.82698C17.9265 3.1146 18.3854 3.57354 18.673 4.13803C19 4.77976 19 5.61984 19 7.3V11.5M19 22.5L16.8236 20.9869C16.5177 20.7742 16.3647 20.6678 16.1982 20.5924C16.0504 20.5255 15.8951 20.4768 15.7356 20.4474C15.5558 20.4143 15.3695 20.4143 14.9969 20.4143H13.2C12.0799 20.4143 11.5198 20.4143 11.092 20.1963C10.7157 20.0046 10.4097 19.6986 10.218 19.3223C10 18.8944 10 18.3344 10 17.2143V14.7C10 13.5799 10 13.0198 10.218 12.592C10.4097 12.2157 10.7157 11.9097 11.092 11.718C11.5198 11.5 12.0799 11.5 13.2 11.5H18.8C19.9201 11.5 20.4802 11.5 20.908 11.718C21.2843 11.9097 21.5903 12.2157 21.782 12.592C22 13.0198 22 13.5799 22 14.7V17.4143C22 18.3462 22 18.8121 21.8478 19.1797C21.6448 19.6697 21.2554 20.0591 20.7654 20.262C20.3978 20.4143 19.9319 20.4143 19 20.4143V22.5Z" stroke="white" stroke-width="2" stroke-linecap="round" stroke-linejoin="round"/>
</g>
</svg>
