<svg width="24" height="25" viewBox="0 0 24 25" fill="none" xmlns="http://www.w3.org/2000/svg">
<g id="building-03">
<path id="Icon" d="M7.5 7.5H10.25M7.5 11.5H10.25M7.5 15.5H10.25M13.75 7.5H16.5M13.75 11.5H16.5M13.75 15.5H16.5M20 21.5V6.7C20 5.5799 20 5.01984 19.782 4.59202C19.5903 4.21569 19.2843 3.90973 18.908 3.71799C18.4802 3.5 17.9201 3.5 16.8 3.5H7.2C6.07989 3.5 5.51984 3.5 5.09202 3.71799C4.71569 3.90973 4.40973 4.21569 4.21799 4.59202C4 5.01984 4 5.5799 4 6.7V21.5M22 21.5H2" stroke="#E5E7EB" stroke-width="2" stroke-linecap="round" stroke-linejoin="round"/>
</g>
</svg>
