<svg width="16" height="16" viewBox="0 0 16 16" fill="none" xmlns="http://www.w3.org/2000/svg">
<g id="Edit">
<path id="Icon" d="M13.5118 2.48816L13.9832 2.01675V2.01675L13.5118 2.48816ZM4.33333 14.0237V14.6903C4.51014 14.6903 4.67971 14.6201 4.80474 14.4951L4.33333 14.0237ZM2 14.0237H1.33333C1.33333 14.3918 1.63181 14.6903 2 14.6903V14.0237ZM2 11.6429L1.5286 11.1715C1.40357 11.2966 1.33333 11.4661 1.33333 11.6429H2ZM11.6262 2.95956C12.0167 2.56904 12.6499 2.56904 13.0404 2.95956L13.9832 2.01675C13.072 1.10553 11.5946 1.10553 10.6834 2.01675L11.6262 2.95956ZM13.0404 2.95956C13.4309 3.35008 13.4309 3.98325 13.0404 4.37377L13.9832 5.31658C14.8944 4.40536 14.8944 2.92797 13.9832 2.01675L13.0404 2.95956ZM13.0404 4.37377L3.86193 13.5522L4.80474 14.4951L13.9832 5.31658L13.0404 4.37377ZM4.33333 13.357H2V14.6903H4.33333V13.357ZM10.6834 2.01675L1.5286 11.1715L2.4714 12.1143L11.6262 2.95956L10.6834 2.01675ZM1.33333 11.6429V14.0237H2.66667V11.6429H1.33333ZM9.68338 3.95956L12.0404 6.31658L12.9832 5.37377L10.6262 3.01675L9.68338 3.95956Z" fill="white"/>
</g>
</svg>
