<svg width="103" height="24" viewBox="0 0 103 24" fill="none" xmlns="http://www.w3.org/2000/svg">
<mask id="path-1-inside-1_885_6807" fill="white">
<path d="M0 0H95C99.4183 0 103 3.58172 103 8V24H8C3.58172 24 0 20.4183 0 16V0Z"/>
</mask>
<path d="M0 0H95C99.4183 0 103 3.58172 103 8V24H8C3.58172 24 0 20.4183 0 16V0Z" fill="#00729C"/>
<path d="M0 -2H95C100.523 -2 105 2.47715 105 8H101C101 4.68629 98.3137 2 95 2H0V-2ZM103 24H0H103ZM0 24V0V24ZM95 -2C100.523 -2 105 2.47715 105 8V24H101V8C101 4.68629 98.3137 2 95 2V-2Z" fill="white" mask="url(#path-1-inside-1_885_6807)"/>
<path d="M8.972 15V6.312H10.112V15H8.972ZM13.158 15H12.054V6.312H13.134L16.77 11.136C17.274 11.796 17.778 12.48 18.27 13.164L18.294 13.152C18.282 12.396 18.27 11.52 18.27 10.68V6.312H19.374V15H18.294L14.658 10.176C14.154 9.516 13.65 8.832 13.158 8.148L13.134 8.16C13.146 8.916 13.158 9.792 13.158 10.632V15ZM24.2298 15V6.312H26.4978C27.4218 6.312 28.3098 6.348 29.0658 6.768C29.8218 7.188 30.3258 7.896 30.3258 8.916C30.3258 9.9 29.8458 10.656 29.1498 11.076C28.3938 11.532 27.3858 11.568 26.2698 11.568H25.3698V15H24.2298ZM25.3698 10.572H26.4138C27.4338 10.572 28.0098 10.536 28.4898 10.248C28.9218 9.984 29.1858 9.552 29.1858 8.964C29.1858 8.316 28.8738 7.872 28.3818 7.62C27.8538 7.356 27.2178 7.344 26.4018 7.344H25.3698V10.572ZM31.6947 15V6.312H36.7107V7.344H32.8347V9.984H36.2307V10.98H32.8347V13.968H36.8187V15H31.6947ZM38.304 15V6.312H40.656C41.532 6.312 42.372 6.348 43.08 6.744C43.8 7.14 44.28 7.812 44.28 8.772C44.28 9.708 43.824 10.416 43.164 10.812C42.852 11.004 42.528 11.112 42.168 11.172L44.952 15H43.572L40.92 11.28H39.444V15H38.304ZM39.444 10.344H40.92C41.688 10.344 42.228 10.248 42.624 9.948C42.948 9.708 43.14 9.348 43.14 8.868C43.14 8.316 42.888 7.884 42.432 7.632C41.964 7.38 41.412 7.344 40.572 7.344H39.444V10.344ZM45.8578 14.472V13.224C46.6618 13.824 47.6818 14.088 48.4498 14.088C49.4818 14.088 50.2138 13.62 50.2138 12.672C50.2138 11.556 49.1938 11.364 48.0538 11.04C46.8298 10.692 45.6418 10.188 45.6418 8.604C45.6418 7.068 46.7578 6.18 48.4498 6.18C49.2658 6.18 50.2498 6.384 50.9458 6.828V8.028C50.1538 7.476 49.1698 7.224 48.4258 7.224C47.4538 7.224 46.7698 7.644 46.7698 8.532C46.7698 9.612 47.7778 9.792 48.8338 10.092C50.0938 10.452 51.3418 10.956 51.3418 12.612C51.3418 14.196 50.1778 15.132 48.4378 15.132C47.5978 15.132 46.6018 14.904 45.8578 14.472ZM52.2964 10.656C52.2964 8.136 54.1924 6.18 56.7124 6.18C59.2324 6.18 61.1284 8.136 61.1284 10.656C61.1284 13.176 59.2324 15.132 56.7124 15.132C54.1924 15.132 52.2964 13.176 52.2964 10.656ZM53.4364 10.656C53.4364 12.564 54.8164 14.076 56.7124 14.076C58.6084 14.076 59.9884 12.564 59.9884 10.656C59.9884 8.748 58.6084 7.236 56.7124 7.236C54.8164 7.236 53.4364 8.748 53.4364 10.656ZM63.6893 15H62.5853V6.312H63.6653L67.3013 11.136C67.8053 11.796 68.3093 12.48 68.8013 13.164L68.8253 13.152C68.8133 12.396 68.8013 11.52 68.8013 10.68V6.312H69.9053V15H68.8253L65.1893 10.176C64.6853 9.516 64.1813 8.832 63.6893 8.148L63.6653 8.16C63.6773 8.916 63.6893 9.792 63.6893 10.632V15Z" fill="white"/>
<path d="M87 6.90278C87.4886 6.34917 88.2035 6 89 6C90.4728 6 91.6667 7.19391 91.6667 8.66667C91.6667 10.1394 90.4728 11.3333 89 11.3333C88.2035 11.3333 87.4886 10.9842 87 10.4305M89 18H81V17.3333C81 15.1242 82.7909 13.3333 85 13.3333C87.2091 13.3333 89 15.1242 89 17.3333V18ZM89 18H93V17.3333C93 15.1242 91.2091 13.3333 89 13.3333C88.2714 13.3333 87.5883 13.5281 87 13.8685M87.6667 8.66667C87.6667 10.1394 86.4728 11.3333 85 11.3333C83.5272 11.3333 82.3333 10.1394 82.3333 8.66667C82.3333 7.19391 83.5272 6 85 6C86.4728 6 87.6667 7.19391 87.6667 8.66667Z" stroke="white" stroke-width="1.33" stroke-linecap="round" stroke-linejoin="round"/>
</svg>
