<svg width="146" height="146" viewBox="0 0 146 146" fill="none" xmlns="http://www.w3.org/2000/svg">
<g clip-path="url(#clip0_885_6537)">
<rect width="146" height="146" rx="8" fill="#F4F4FF"/>
<path d="M52.3923 95.2744L69.983 77.6837C71.0391 76.6276 71.5671 76.0996 72.176 75.9018C72.7115 75.7277 73.2885 75.7277 73.8241 75.9018C74.4329 76.0996 74.961 76.6276 76.017 77.6837L93.4905 95.1571M78.3333 80L85.983 72.3503C87.0391 71.2943 87.5671 70.7663 88.176 70.5684C88.7115 70.3944 89.2885 70.3944 89.8241 70.5684C90.4329 70.7663 90.961 71.2943 92.017 72.3503L99.6667 80M67.6667 64C67.6667 66.9455 65.2789 69.3333 62.3333 69.3333C59.3878 69.3333 57 66.9455 57 64C57 61.0545 59.3878 58.6667 62.3333 58.6667C65.2789 58.6667 67.6667 61.0545 67.6667 64ZM59.1333 96H86.8667C91.3471 96 93.5873 96 95.2986 95.1281C96.8039 94.3611 98.0277 93.1372 98.7947 91.6319C99.6667 89.9206 99.6667 87.6804 99.6667 83.2V60.8C99.6667 56.3196 99.6667 54.0794 98.7947 52.3681C98.0277 50.8628 96.8039 49.6389 95.2986 48.8719C93.5873 48 91.3471 48 86.8667 48H59.1333C54.6529 48 52.4127 48 50.7014 48.8719C49.1961 49.6389 47.9723 50.8628 47.2053 52.3681C46.3333 54.0794 46.3333 56.3196 46.3333 60.8V83.2C46.3333 87.6804 46.3333 89.9206 47.2053 91.6319C47.9723 93.1372 49.1961 94.3611 50.7014 95.1281C52.4127 96 54.6529 96 59.1333 96Z" stroke="#C3C4FF" stroke-width="2" stroke-linecap="round" stroke-linejoin="round"/>
</g>
<defs>
<clipPath id="clip0_885_6537">
<rect width="146" height="146" fill="white"/>
</clipPath>
</defs>
</svg>
