<svg width="16" height="16" viewBox="0 0 16 16" fill="none" xmlns="http://www.w3.org/2000/svg">
<g id="Plus &#38; Minus">
<path id="Vector 8" d="M8.78338 2C8.78338 1.55817 8.42521 1.2 7.98338 1.2C7.54155 1.2 7.18338 1.55817 7.18338 2H8.78338ZM7.18338 14C7.18338 14.4418 7.54155 14.8 7.98338 14.8C8.42521 14.8 8.78338 14.4418 8.78338 14H7.18338ZM2 7.2C1.55817 7.2 1.2 7.55817 1.2 8C1.2 8.44183 1.55817 8.8 2 8.8V7.2ZM14 8.8C14.4418 8.8 14.8 8.44183 14.8 8C14.8 7.55817 14.4418 7.2 14 7.2V8.8ZM7.18338 2V8H8.78338V2H7.18338ZM7.18338 8V14H8.78338V8H7.18338ZM7.98338 7.2H2V8.8H7.98338V7.2ZM2 8.8H14V7.2H2V8.8Z" fill="white"/>
</g>
</svg>
