<svg width="16" height="16" viewBox="0 0 16 16" fill="none" xmlns="http://www.w3.org/2000/svg">
<g id="video-recorder">
<g id="Icon">
<path d="M14.6668 5.95441C14.6668 5.55053 14.6668 5.34859 14.587 5.25508C14.5177 5.17395 14.4137 5.13089 14.3073 5.13926C14.1847 5.14891 14.042 5.2917 13.7564 5.57729L11.3335 8.00016L13.7564 10.423C14.042 10.7086 14.1847 10.8514 14.3073 10.8611C14.4137 10.8694 14.5177 10.8264 14.587 10.7452C14.6668 10.6517 14.6668 10.4498 14.6668 10.0459V5.95441Z" stroke="white" stroke-width="1.33333" stroke-linecap="round" stroke-linejoin="round"/>
<path d="M1.3335 6.5335C1.3335 5.41339 1.3335 4.85334 1.55148 4.42552C1.74323 4.04919 2.04919 3.74323 2.42552 3.55148C2.85334 3.3335 3.41339 3.3335 4.5335 3.3335H8.1335C9.2536 3.3335 9.81365 3.3335 10.2415 3.55148C10.6178 3.74323 10.9238 4.04919 11.1155 4.42552C11.3335 4.85334 11.3335 5.41339 11.3335 6.5335V9.46683C11.3335 10.5869 11.3335 11.147 11.1155 11.5748C10.9238 11.9511 10.6178 12.2571 10.2415 12.4488C9.81365 12.6668 9.2536 12.6668 8.1335 12.6668H4.5335C3.41339 12.6668 2.85334 12.6668 2.42552 12.4488C2.04919 12.2571 1.74323 11.9511 1.55148 11.5748C1.3335 11.147 1.3335 10.5869 1.3335 9.46683V6.5335Z" stroke="white" stroke-width="1.33333" stroke-linecap="round" stroke-linejoin="round"/>
</g>
</g>
</svg>
