<svg width="90" height="24" viewBox="0 0 90 24" fill="none" xmlns="http://www.w3.org/2000/svg">
<mask id="path-1-inside-1_885_6541" fill="white">
<path d="M0 0H82C86.4183 0 90 3.58172 90 8V24H8C3.58172 24 0 20.4183 0 16V0Z"/>
</mask>
<path d="M0 0H82C86.4183 0 90 3.58172 90 8V24H8C3.58172 24 0 20.4183 0 16V0Z" fill="#960054"/>
<path d="M0 -2H82C87.5229 -2 92 2.47715 92 8H88C88 4.68629 85.3137 2 82 2H0V-2ZM90 24H0H90ZM0 24V0V24ZM82 -2C87.5229 -2 92 2.47715 92 8V24H88V8C88 4.68629 85.3137 2 82 2V-2Z" fill="white" mask="url(#path-1-inside-1_885_6541)"/>
<path d="M11.408 15L8.06 6.312H9.284L11.132 11.184C11.42 11.94 11.696 12.684 11.984 13.488H12.008C12.296 12.696 12.584 11.928 12.884 11.148L14.744 6.312H15.908L12.572 15H11.408ZM16.9408 15V6.312H18.0808V15H16.9408ZM20.0228 15V6.312H22.3748C23.2508 6.312 24.0908 6.348 24.7988 6.744C25.5188 7.14 25.9988 7.812 25.9988 8.772C25.9988 9.708 25.5428 10.416 24.8828 10.812C24.5708 11.004 24.2468 11.112 23.8868 11.172L26.6708 15H25.2908L22.6388 11.28H21.1628V15H20.0228ZM21.1628 10.344H22.6388C23.4068 10.344 23.9468 10.248 24.3428 9.948C24.6668 9.708 24.8588 9.348 24.8588 8.868C24.8588 8.316 24.6068 7.884 24.1508 7.632C23.6828 7.38 23.1308 7.344 22.2908 7.344H21.1628V10.344ZM29.9646 15V7.344H27.0486V6.312H34.0206V7.344H31.1046V15H29.9646ZM35.7137 13.776C35.2097 12.996 35.1377 11.988 35.1377 10.908V6.312H36.2777V10.788C36.2777 11.856 36.3497 12.528 36.6137 13.032C36.9137 13.596 37.5377 14.076 38.6777 14.076C39.7337 14.076 40.3817 13.668 40.7177 13.032C40.9937 12.516 41.0417 11.82 41.0417 10.836V6.312H42.1457V10.776C42.1457 12.036 42.0737 13.008 41.5697 13.776C41.0177 14.616 39.9737 15.132 38.6297 15.132C37.2737 15.132 36.2537 14.604 35.7137 13.776ZM42.9233 15L46.4993 6.312H47.5913L51.1793 15H49.9553L48.9833 12.576H45.0713L44.0873 15H42.9233ZM46.1753 9.816L45.4673 11.58H48.5873L47.8793 9.78C47.6033 9.084 47.3153 8.34 47.0513 7.632H47.0273C46.7633 8.34 46.4753 9.072 46.1753 9.816ZM52.2142 15V6.312H53.3542V13.968H57.4582V15H52.2142Z" fill="white"/>
<path d="M80.6667 9.95441C80.6667 9.55053 80.6667 9.34859 80.5869 9.25508C80.5176 9.17395 80.4136 9.13089 80.3073 9.13926C80.1847 9.14891 80.0419 9.2917 79.7563 9.57729L77.3334 12.0002L79.7563 14.423C80.0419 14.7086 80.1847 14.8514 80.3073 14.8611C80.4136 14.8694 80.5176 14.8264 80.5869 14.7452C80.6667 14.6517 80.6667 14.4498 80.6667 14.0459V9.95441Z" stroke="white" stroke-width="1.33333" stroke-linecap="round" stroke-linejoin="round"/>
<path d="M67.3334 10.5335C67.3334 9.41339 67.3334 8.85334 67.5514 8.42552C67.7431 8.04919 68.0491 7.74323 68.4254 7.55148C68.8532 7.3335 69.4133 7.3335 70.5334 7.3335H74.1334C75.2535 7.3335 75.8136 7.3335 76.2414 7.55148C76.6177 7.74323 76.9237 8.04919 77.1154 8.42552C77.3334 8.85334 77.3334 9.41339 77.3334 10.5335V13.4668C77.3334 14.5869 77.3334 15.147 77.1154 15.5748C76.9237 15.9511 76.6177 16.2571 76.2414 16.4488C75.8136 16.6668 75.2535 16.6668 74.1334 16.6668H70.5334C69.4133 16.6668 68.8532 16.6668 68.4254 16.4488C68.0491 16.2571 67.7431 15.9511 67.5514 15.5748C67.3334 15.147 67.3334 14.5869 67.3334 13.4668V10.5335Z" stroke="white" stroke-width="1.33333" stroke-linecap="round" stroke-linejoin="round"/>
</svg>
